HIERARCHY
ROOT Hips
{
	OFFSET 0.000000 0.000000 0.000000
	CHANNELS 6 Xposition Yposition Zposition Xrotation Yrotation Zrotation
	JOINT LeftUpLeg_virtual
	{
		OFFSET 0.000000 0.000000 0.000000
		CHANNELS 3 Xrotation Yrotation Zrotation
		JOINT LeftUpLeg
		{
			OFFSET 11.394100 -6.187798 -0.413800
			CHANNELS 3 Xrotation Yrotation Zrotation
			JOINT LeftLeg
			{
				OFFSET 0.430247 -32.302673 3.732800
				CHANNELS 3 Xrotation Yrotation Zrotation
				JOINT LeftFoot
				{
					OFFSET -0.430247 -48.264931 -6.423300
					CHANNELS 3 Xrotation Yrotation Zrotation
					JOINT LeftToeBase
					{
						OFFSET 4.230900 -16.068199 23.438400
						CHANNELS 3 Xrotation Yrotation Zrotation
						JOINT LeftToe_End
						{
							OFFSET 4.510700 0.695400 19.974600
							CHANNELS 3 Xrotation Yrotation Zrotation
							End Site
							{
								OFFSET 0 0 0
							}
						}
					}
				}
			}
		}
	}
	JOINT RightUpLeg_virtual
	{
		OFFSET 0.000000 0.000000 0.000000
		CHANNELS 3 Xrotation Yrotation Zrotation
		JOINT RightUpLeg
		{
			OFFSET -11.333700 -6.187798 -0.413800
			CHANNELS 3 Xrotation Yrotation Zrotation
			JOINT RightLeg
			{
				OFFSET -0.430392 -32.302628 3.733000
				CHANNELS 3 Xrotation Yrotation Zrotation
				JOINT RightFoot
				{
					OFFSET 0.430392 -48.264973 -6.423500
					CHANNELS 3 Xrotation Yrotation Zrotation
					JOINT RightToeBase
					{
						OFFSET -4.230900 -16.068199 23.438400
						CHANNELS 3 Xrotation Yrotation Zrotation
						JOINT RightToe_End
						{
							OFFSET -4.510700 0.695400 19.974600
							CHANNELS 3 Xrotation Yrotation Zrotation
							End Site
							{
								OFFSET 0 0 0
							}
						}
					}
				}
			}
		}
	}
	JOINT Spine_virtual
	{
		OFFSET 0.000000 0.000000 0.000000
		CHANNELS 3 Xrotation Yrotation Zrotation
		JOINT Spine
		{
			OFFSET -0.002400 12.777504 0.315300
			CHANNELS 3 Xrotation Yrotation Zrotation
			JOINT Spine1
			{
				OFFSET -0.002067 5.816869 0.032633
				CHANNELS 3 Xrotation Yrotation Zrotation
				JOINT Spine1_split
				{
					OFFSET -0.002067 5.816869 0.032633
					CHANNELS 3 Xrotation Yrotation Zrotation
					JOINT Spine2
					{
						OFFSET -0.002067 5.816869 0.032633
						CHANNELS 3 Xrotation Yrotation Zrotation
						JOINT Neck_virtual
						{
							OFFSET 0.000000 0.000000 0.000000
							CHANNELS 3 Xrotation Yrotation Zrotation
							JOINT Neck
							{
								OFFSET -0.003700 21.199493 -0.826900
								CHANNELS 3 Xrotation Yrotation Zrotation
								JOINT Head
								{
									OFFSET 0.000000 20.442200 4.834800
									CHANNELS 3 Xrotation Yrotation Zrotation
									JOINT HeadTop_End
									{
										OFFSET 0.000000 34.668396 4.968400
										CHANNELS 3 Xrotation Yrotation Zrotation
										End Site
										{
											OFFSET 0 0 0
										}
									}
								}
							}
						}
						JOINT LeftShoulder_virtual
						{
							OFFSET 0.000000 0.000000 0.000000
							CHANNELS 3 Xrotation Yrotation Zrotation
							JOINT LeftShoulder
							{
								OFFSET 3.288150 8.794197 -1.372250
								CHANNELS 3 Xrotation Yrotation Zrotation
								JOINT LeftShoulder_split
								{
									OFFSET 3.288150 8.794197 -1.372250
									CHANNELS 3 Xrotation Yrotation Zrotation
									JOINT LeftArm
									{
										OFFSET 11.953299 -2.279007 -0.146200
										CHANNELS 3 Xrotation Yrotation Zrotation
										JOINT LeftForeArm
										{
											OFFSET 18.448900 0.000000 0.000000
											CHANNELS 3 Xrotation Yrotation Zrotation
											JOINT LeftHand
											{
												OFFSET 29.527798 0.000000 0.000000
												CHANNELS 3 Xrotation Yrotation Zrotation
												End Site
												{
													OFFSET 0 0 0
												}
											}
										}
									}
								}
							}
						}
						JOINT RightShoulder_virtual
						{
							OFFSET 0.000000 0.000000 0.000000
							CHANNELS 3 Xrotation Yrotation Zrotation
							JOINT RightShoulder
							{
								OFFSET -3.249400 8.794197 -1.372250
								CHANNELS 3 Xrotation Yrotation Zrotation
								JOINT RightShoulder_split
								{
									OFFSET -3.249400 8.794197 -1.372250
									CHANNELS 3 Xrotation Yrotation Zrotation
									JOINT RightArm
									{
										OFFSET -11.953299 -2.279007 -0.146200
										CHANNELS 3 Xrotation Yrotation Zrotation
										JOINT RightForeArm
										{
											OFFSET -18.448900 0.000000 0.000000
											CHANNELS 3 Xrotation Yrotation Zrotation
											JOINT RightHand
											{
												OFFSET -29.527802 0.000000 0.000000
												CHANNELS 3 Xrotation Yrotation Zrotation
												End Site
												{
													OFFSET 0 0 0
												}
											}
										}
									}
								}
							}
						}
					}
				}
			}
		}
	}
}
MOTION
Frames: 4
Frame Time: 0.03333333
2.521410 138.160065 1.924610 0.000000 0.000000 0.000000 7.228434 -10.891214 6.862261 -96.599249 -6.052829 15.752122 63.327622 0.636142 -11.030014 21.079343 -16.677182 9.980175 1.218127 -1.279029 0.039466 0.000000 0.000000 0.000000 5.871214 -2.880186 6.258509 -116.080772 -1.192792 4.957287 113.006060 -5.935567 -8.968463 51.866431 14.310806 5.695192 12.202399 -0.079697 -2.553087 0.000000 0.000000 0.000000 1.323870 -7.829254 9.179691 30.044189 -8.635082 -11.331463 0.628062 -3.570659 -1.957889 3.083525 -0.951283 0.703413 0.000000 0.000000 0.000000 3.108549 -1.928752 -1.106318 -22.041516 4.866782 5.911168 20.352483 1.982848 -18.105638 0.000000 0.000000 0.000000 2.883263 -2.205317 -1.009437 12.898943 -38.937737 32.474858 -4.285516 -1.008312 0.928462 -65.181431 13.781724 19.409147 -48.720836 -70.217097 -32.738760 0.000000 0.000000 0.000000 3.239086 -2.264645 -0.891869 1.513789 8.092357 -16.356899 6.163319 2.538706 -2.869467 -86.719292 -9.721129 -16.235165 -63.615310 67.530012 60.213206 0.000000 0.000000 0.000000 
1.273691 137.392380 7.466419 0.000000 0.000000 0.000000 5.226229 -11.440776 7.058986 -95.626897 -5.462373 16.914808 60.323268 0.255806 -11.117910 22.105441 -15.297032 11.366862 -0.081153 -0.979945 0.125687 0.000000 0.000000 0.000000 4.598701 -5.851942 6.811872 -113.194826 -1.300453 1.826888 109.805441 -6.262527 -7.900657 50.890196 12.664971 6.640720 10.025394 -0.369546 -2.424334 0.000000 0.000000 0.000000 -0.352153 -8.002080 8.436907 29.987546 -8.371650 -11.042204 0.267679 -3.260624 -2.281280 1.891100 -2.344576 0.904278 0.000000 0.000000 0.000000 3.061347 -1.748724 -1.473807 -21.963313 3.852791 7.093218 19.722236 2.911524 -18.955539 0.000000 0.000000 0.000000 2.611312 -1.996518 -1.418458 10.952777 -37.914247 29.796512 -3.635196 -2.175545 1.582211 -63.530684 12.559174 17.975741 -57.354622 -71.755017 -41.402868 0.000000 0.000000 0.000000 3.112356 -2.018502 -1.313448 1.023805 8.229915 -16.609567 7.072199 1.392461 -0.973582 -85.664649 -9.994244 -13.665971 -64.863691 67.206090 61.512137 0.000000 0.000000 0.000000 
-0.089784 135.952240 15.227573 0.000000 0.000000 0.000000 3.161526 -13.531210 7.628666 -90.290941 -5.136092 17.915970 52.455969 0.898940 -11.234604 25.505849 -12.126843 11.450971 -1.451991 -0.482541 0.031306 0.000000 0.000000 0.000000 2.751517 -10.499024 7.656488 -104.567348 -1.510994 -1.991655 101.281385 -6.537033 -6.929647 47.890455 8.850119 7.157936 12.141760 -0.358693 -0.112469 0.000000 0.000000 0.000000 -2.358765 -9.615201 7.858379 28.298608 -7.539448 -10.066410 0.380386 -2.862487 -3.266178 0.924260 -3.591035 1.495551 0.000000 0.000000 0.000000 3.673952 -1.622024 -2.486849 -21.515007 2.803981 9.532417 19.999229 4.542085 -19.819976 0.000000 0.000000 0.000000 3.015547 -1.829493 -2.472727 7.579515 -35.252915 24.815766 -2.838293 -2.906638 1.637586 -59.678976 9.256930 15.351649 -63.360065 -72.495723 -47.226510 0.000000 0.000000 0.000000 3.447681 -1.894717 -2.396994 0.671405 10.423401 -15.918079 6.971471 0.557736 0.251998 -82.943106 -11.263755 -11.350999 -69.097267 67.014456 65.591543 0.000000 0.000000 0.000000 
-1.114730 133.952820 24.003107 0.000000 0.000000 0.000000 0.856741 -16.754922 8.080589 -81.158370 -5.152426 18.584480 41.209482 2.637074 -11.038200 30.382608 -7.554655 10.055061 -1.426210 0.202383 -0.784277 0.000000 0.000000 0.000000 0.863625 -15.459100 8.379745 -90.542381 -2.538116 -5.958728 88.017403 -6.564339 -5.987617 44.786623 4.073174 7.179710 16.005459 0.092580 2.951346 0.000000 0.000000 0.000000 -4.867335 -12.618657 7.386757 25.318550 -6.338387 -8.375591 1.055195 -2.448665 -4.676822 1.272251 -4.724456 1.932751 0.000000 0.000000 0.000000 4.633864 -1.582166 -3.854143 -20.592879 1.888129 12.539127 20.912835 6.536804 -20.613127 0.000000 0.000000 0.000000 3.995637 -1.701774 -3.974424 3.629525 -31.197046 18.418030 -1.543368 -2.697838 1.755459 -54.744188 4.219757 12.056652 -63.569581 -72.251599 -47.006000 0.000000 0.000000 0.000000 4.196364 -1.858967 -3.929676 0.401313 14.184361 -14.611240 6.297049 0.444825 1.043001 -79.574429 -13.802845 -10.194554 -75.692553 66.787120 71.875194 0.000000 0.000000 0.000000 
